<svg width="1528" height="202" viewBox="0 0 1528 202" fill="none" xmlns="http://www.w3.org/2000/svg">
<path d="M14.5 112.389V155.611C14.5 173.223 28.777 187.5 46.3887 187.5H89.6114C107.223 187.5 121.5 173.223 121.5 155.611V112.389C121.5 94.777 107.223 80.5 89.6114 80.5H46.3886C28.777 80.5 14.5 94.777 14.5 112.389ZM14.5 112.389V14.5" stroke="white" stroke-width="29" stroke-linecap="round"/>
<path d="M175.5 187.5L175.5 43.5" stroke="white" stroke-width="29" stroke-linecap="round"/>
<rect x="229.5" y="80.5" width="107" height="107" rx="31.8886" stroke="white" stroke-width="29"/>
<path d="M476.5 80.5H422.389C404.777 80.5 390.5 94.777 390.5 112.389V155.611C390.5 173.223 404.777 187.5 422.389 187.5H476.5" stroke="white" stroke-width="29" stroke-linecap="round"/>
<path d="M530.5 187.5L530.5 43.5" stroke="white" stroke-width="29" stroke-linecap="round"/>
<path d="M605.5 187.5L530.5 114.5" stroke="white" stroke-width="29" stroke-linecap="round"/>
<path d="M560.5 134.5L605.5 80.5" stroke="white" stroke-width="29" stroke-linecap="round"/>
<path d="M741.5 80.5H686.25C671.476 80.5 659.5 92.4764 659.5 107.25C659.5 122.024 671.476 134 686.25 134H714.75C729.524 134 741.5 145.976 741.5 160.75C741.5 175.524 729.524 187.5 714.75 187.5H659.5" stroke="white" stroke-width="29" stroke-linecap="round"/>
<path d="M1513.5 80.5H1458.25C1443.48 80.5 1431.5 92.4764 1431.5 107.25C1431.5 122.024 1443.48 134 1458.25 134H1486.75C1501.52 134 1513.5 145.976 1513.5 160.75C1513.5 175.524 1501.52 187.5 1486.75 187.5H1431.5" stroke="white" stroke-width="29" stroke-linecap="round"/>
<path d="M1181.5 187.5L1181.5 43.5M1181.5 80H1233.5" stroke="white" stroke-width="29" stroke-linecap="round"/>
<path d="M1020.5 112.389C1020.5 94.777 1034.78 80.5 1052.39 80.5H1095.61C1113.22 80.5 1127.5 94.777 1127.5 112.389V155.611C1127.5 173.223 1113.22 187.5 1095.61 187.5H1052.39C1034.78 187.5 1020.5 173.223 1020.5 155.611V112.389Z" stroke="white" stroke-width="29"/>
<path d="M1377.5 187.5H1302.39C1284.78 187.5 1270.5 173.223 1270.5 155.611V134M1270.5 134V112.389C1270.5 94.777 1284.78 80.5 1302.39 80.5H1350.75C1365.52 80.5 1377.5 92.4764 1377.5 107.25C1377.5 122.024 1365.52 134 1350.75 134H1270.5Z" stroke="white" stroke-width="29" stroke-linecap="round"/>
<path d="M966.5 187.5V112.389C966.5 94.777 952.223 80.5 934.611 80.5H891.389C873.777 80.5 859.5 94.777 859.5 112.389V187.5" stroke="white" stroke-width="29" stroke-linecap="round"/>
</svg>
